<mxfile host="app.diagrams.net" agent="Mozilla/5.0 (Windows NT 10.0; Win64; x64; rv:138.0) Gecko/20100101 Firefox/138.0" version="27.0.5">
  <diagram name="Page-1" id="_8Z-U01voDiPmD-Zs1qL">
    <mxGraphModel dx="1426" dy="751" grid="1" gridSize="10" guides="1" tooltips="1" connect="1" arrows="1" fold="1" page="1" pageScale="1" pageWidth="1169" pageHeight="827" math="0" shadow="0">
      <root>
        <mxCell id="0" />
        <mxCell id="1" parent="0" />
        <mxCell id="5DF6abSAtcW0_sRubqsM-15" style="edgeStyle=orthogonalEdgeStyle;rounded=1;orthogonalLoop=1;jettySize=auto;html=1;exitX=0;exitY=0.25;exitDx=0;exitDy=0;entryX=1;entryY=0.5;entryDx=0;entryDy=0;strokeWidth=2;curved=0;strokeColor=#FFAB2E;startArrow=classic;startFill=1;endArrow=none;endFill=0;" parent="1" source="JKJvemzIVtSR8P2CJAXn-1" target="5DF6abSAtcW0_sRubqsM-13" edge="1">
          <mxGeometry relative="1" as="geometry" />
        </mxCell>
        <mxCell id="5DF6abSAtcW0_sRubqsM-16" value="RCC (HSE)" style="edgeLabel;html=1;align=center;verticalAlign=middle;resizable=0;points=[];fontSize=12;fontFamily=JetBrains Mono;fontSource=https%3A%2F%2Ffonts.googleapis.com%2Fcss%3Ffamily%3DJetBrains%2BMono;labelBackgroundColor=#FFAB2E;labelBorderColor=#FFAB2E;textShadow=0;" parent="5DF6abSAtcW0_sRubqsM-15" vertex="1" connectable="0">
          <mxGeometry x="-0.008" y="-1" relative="1" as="geometry">
            <mxPoint x="-1" y="1" as="offset" />
          </mxGeometry>
        </mxCell>
        <mxCell id="1UeGAJv3N5sdaj4KIY9R-6" style="edgeStyle=orthogonalEdgeStyle;rounded=1;orthogonalLoop=1;jettySize=auto;html=1;exitX=0;exitY=0.75;exitDx=0;exitDy=0;entryX=1;entryY=0.5;entryDx=0;entryDy=0;startArrow=none;startFill=0;fontSize=12;fontFamily=JetBrains Mono;fontSource=https%3A%2F%2Ffonts.googleapis.com%2Fcss%3Ffamily%3DJetBrains%2BMono;strokeWidth=2;strokeColor=#FFAB2E;curved=0;endArrow=classic;endFill=1;" parent="1" source="JKJvemzIVtSR8P2CJAXn-1" target="1UeGAJv3N5sdaj4KIY9R-3" edge="1">
          <mxGeometry relative="1" as="geometry" />
        </mxCell>
        <mxCell id="1UeGAJv3N5sdaj4KIY9R-19" value="&lt;div&gt;TIM2_CH1,&lt;/div&gt;&lt;div&gt;TIM2_CH2,&lt;/div&gt;&lt;div&gt;TIM2_CH3,&lt;/div&gt;&lt;div&gt;TIM2_CH4&lt;/div&gt;" style="edgeLabel;html=1;align=center;verticalAlign=middle;resizable=0;points=[];fontSize=12;fontFamily=JetBrains Mono;fontSource=https%3A%2F%2Ffonts.googleapis.com%2Fcss%3Ffamily%3DJetBrains%2BMono;labelBackgroundColor=#FFAB2E;labelBorderColor=#FFAB2E;" parent="1UeGAJv3N5sdaj4KIY9R-6" vertex="1" connectable="0">
          <mxGeometry x="0.0286" relative="1" as="geometry">
            <mxPoint as="offset" />
          </mxGeometry>
        </mxCell>
        <mxCell id="1UeGAJv3N5sdaj4KIY9R-7" style="edgeStyle=orthogonalEdgeStyle;rounded=1;orthogonalLoop=1;jettySize=auto;html=1;exitX=0.25;exitY=0;exitDx=0;exitDy=0;entryX=0.5;entryY=1;entryDx=0;entryDy=0;startArrow=classic;startFill=1;fontSize=12;fontFamily=JetBrains Mono;fontSource=https%3A%2F%2Ffonts.googleapis.com%2Fcss%3Ffamily%3DJetBrains%2BMono;strokeWidth=2;strokeColor=#FFAB2E;curved=0;" parent="1" source="JKJvemzIVtSR8P2CJAXn-1" target="1UeGAJv3N5sdaj4KIY9R-4" edge="1">
          <mxGeometry relative="1" as="geometry" />
        </mxCell>
        <mxCell id="1UeGAJv3N5sdaj4KIY9R-20" value="USART1" style="edgeLabel;html=1;align=center;verticalAlign=middle;resizable=0;points=[];fontSize=12;fontFamily=JetBrains Mono;fontSource=https%3A%2F%2Ffonts.googleapis.com%2Fcss%3Ffamily%3DJetBrains%2BMono;labelBackgroundColor=#FFAB2E;labelBorderColor=#FFAB2E;" parent="1UeGAJv3N5sdaj4KIY9R-7" vertex="1" connectable="0">
          <mxGeometry x="-0.19" relative="1" as="geometry">
            <mxPoint x="-21" as="offset" />
          </mxGeometry>
        </mxCell>
        <mxCell id="JKJvemzIVtSR8P2CJAXn-23" style="edgeStyle=orthogonalEdgeStyle;rounded=1;orthogonalLoop=1;jettySize=auto;html=1;exitX=0;exitY=0.5;exitDx=0;exitDy=0;strokeWidth=2;startArrow=classic;startFill=1;fontFamily=JetBrains Mono;fontSource=https%3A%2F%2Ffonts.googleapis.com%2Fcss%3Ffamily%3DJetBrains%2BMono;strokeColor=#FFAB2E;fillColor=#ffcc99;fontSize=12;curved=0;entryX=1;entryY=0.5;entryDx=0;entryDy=0;" parent="1" source="JKJvemzIVtSR8P2CJAXn-16" target="JKJvemzIVtSR8P2CJAXn-1" edge="1">
          <mxGeometry relative="1" as="geometry">
            <mxPoint x="690" y="450" as="targetPoint" />
          </mxGeometry>
        </mxCell>
        <mxCell id="JKJvemzIVtSR8P2CJAXn-24" value="CAN1" style="edgeLabel;html=1;align=center;verticalAlign=middle;resizable=0;points=[];fontFamily=JetBrains Mono;fontSource=https%3A%2F%2Ffonts.googleapis.com%2Fcss%3Ffamily%3DJetBrains%2BMono;fontSize=12;labelBackgroundColor=#FFAB2E;labelBorderColor=#FFAB2E;" parent="JKJvemzIVtSR8P2CJAXn-23" vertex="1" connectable="0">
          <mxGeometry x="-0.0333" relative="1" as="geometry">
            <mxPoint x="-3" as="offset" />
          </mxGeometry>
        </mxCell>
        <mxCell id="JKJvemzIVtSR8P2CJAXn-16" value="TJA1051T/3 CAN Bus Transceiver" style="rounded=0;whiteSpace=wrap;html=1;fontSize=12;fontFamily=JetBrains Mono;fontSource=https%3A%2F%2Ffonts.googleapis.com%2Fcss%3Ffamily%3DJetBrains%2BMono;fillColor=#ffcc99;strokeColor=#36393d;" parent="1" vertex="1">
          <mxGeometry x="800" y="410" width="120" height="60" as="geometry" />
        </mxCell>
        <mxCell id="JKJvemzIVtSR8P2CJAXn-29" style="edgeStyle=orthogonalEdgeStyle;rounded=1;orthogonalLoop=1;jettySize=auto;html=1;exitX=0.5;exitY=1;exitDx=0;exitDy=0;entryX=0.75;entryY=0;entryDx=0;entryDy=0;startArrow=classic;startFill=1;strokeWidth=2;strokeColor=#FFAB2E;fillColor=#ffcc99;fontSize=12;fontFamily=JetBrains Mono;fontSource=https%3A%2F%2Ffonts.googleapis.com%2Fcss%3Ffamily%3DJetBrains%2BMono;curved=0;" parent="1" source="JKJvemzIVtSR8P2CJAXn-28" target="JKJvemzIVtSR8P2CJAXn-1" edge="1">
          <mxGeometry relative="1" as="geometry" />
        </mxCell>
        <mxCell id="JKJvemzIVtSR8P2CJAXn-31" value="SWD&lt;br style=&quot;font-size: 12px;&quot;&gt;SWO" style="edgeLabel;html=1;align=center;verticalAlign=middle;resizable=0;points=[];fontSize=12;fontFamily=JetBrains Mono;fontSource=https%3A%2F%2Ffonts.googleapis.com%2Fcss%3Ffamily%3DJetBrains%2BMono;labelBackgroundColor=#FFAB2E;labelBorderColor=#FFAB2E;" parent="JKJvemzIVtSR8P2CJAXn-29" vertex="1" connectable="0">
          <mxGeometry x="0.08" y="-2" relative="1" as="geometry">
            <mxPoint x="9" y="2" as="offset" />
          </mxGeometry>
        </mxCell>
        <mxCell id="JKJvemzIVtSR8P2CJAXn-28" value="TC2050 Programming Contact Pads" style="rounded=0;whiteSpace=wrap;html=1;fontSize=12;fontFamily=JetBrains Mono;fontSource=https%3A%2F%2Ffonts.googleapis.com%2Fcss%3Ffamily%3DJetBrains%2BMono;fillColor=#cdeb8b;strokeColor=#36393d;" parent="1" vertex="1">
          <mxGeometry x="640" y="180" width="120" height="60" as="geometry" />
        </mxCell>
        <mxCell id="1UeGAJv3N5sdaj4KIY9R-3" value="PWM Breakout" style="rounded=0;whiteSpace=wrap;html=1;fontSize=12;fontFamily=JetBrains Mono;fontSource=https%3A%2F%2Ffonts.googleapis.com%2Fcss%3Ffamily%3DJetBrains%2BMono;fillColor=#ffff88;strokeColor=#36393d;" parent="1" vertex="1">
          <mxGeometry x="280" y="450" width="120" height="60" as="geometry" />
        </mxCell>
        <mxCell id="1UeGAJv3N5sdaj4KIY9R-4" value="UART Breakout" style="rounded=0;whiteSpace=wrap;html=1;fontSize=12;fontFamily=JetBrains Mono;fontSource=https%3A%2F%2Ffonts.googleapis.com%2Fcss%3Ffamily%3DJetBrains%2BMono;fillColor=#ffff88;strokeColor=#36393d;" parent="1" vertex="1">
          <mxGeometry x="440" y="180" width="120" height="60" as="geometry" />
        </mxCell>
        <mxCell id="5DF6abSAtcW0_sRubqsM-4" value="MCU" style="rounded=0;whiteSpace=wrap;html=1;fontSize=12;fontFamily=JetBrains Mono;fontSource=https%3A%2F%2Ffonts.googleapis.com%2Fcss%3Ffamily%3DJetBrains%2BMono;fillColor=#cce5ff;strokeColor=#36393d;" parent="1" vertex="1">
          <mxGeometry x="10" y="50" width="120" height="30" as="geometry" />
        </mxCell>
        <mxCell id="5DF6abSAtcW0_sRubqsM-5" value="Sensor" style="rounded=0;whiteSpace=wrap;html=1;fontSize=12;fontFamily=JetBrains Mono;fontSource=https%3A%2F%2Ffonts.googleapis.com%2Fcss%3Ffamily%3DJetBrains%2BMono;fillColor=#eeeeee;strokeColor=#36393d;" parent="1" vertex="1">
          <mxGeometry x="10" y="130" width="120" height="30" as="geometry" />
        </mxCell>
        <mxCell id="5DF6abSAtcW0_sRubqsM-7" value="Direct control" style="rounded=0;whiteSpace=wrap;html=1;fontSize=12;fontFamily=JetBrains Mono;fontSource=https%3A%2F%2Ffonts.googleapis.com%2Fcss%3Ffamily%3DJetBrains%2BMono;fillColor=#ffff88;strokeColor=#36393d;" parent="1" vertex="1">
          <mxGeometry x="150" y="10" width="120" height="30" as="geometry" />
        </mxCell>
        <mxCell id="5DF6abSAtcW0_sRubqsM-8" value="External Comm" style="rounded=0;whiteSpace=wrap;html=1;fontSize=12;fontFamily=JetBrains Mono;fontSource=https%3A%2F%2Ffonts.googleapis.com%2Fcss%3Ffamily%3DJetBrains%2BMono;fillColor=#ffcccc;strokeColor=#36393d;" parent="1" vertex="1">
          <mxGeometry x="150" y="50" width="120" height="30" as="geometry" />
        </mxCell>
        <mxCell id="5DF6abSAtcW0_sRubqsM-11" value="Internal Comm " style="rounded=0;whiteSpace=wrap;html=1;fontSize=12;fontFamily=JetBrains Mono;fontSource=https%3A%2F%2Ffonts.googleapis.com%2Fcss%3Ffamily%3DJetBrains%2BMono;fillColor=#ffcc99;strokeColor=#36393d;" parent="1" vertex="1">
          <mxGeometry x="150" y="90" width="120" height="30" as="geometry" />
        </mxCell>
        <mxCell id="5DF6abSAtcW0_sRubqsM-13" value="RCC HSE Crystal" style="rounded=0;whiteSpace=wrap;html=1;fontSize=12;fontFamily=JetBrains Mono;fontSource=https%3A%2F%2Ffonts.googleapis.com%2Fcss%3Ffamily%3DJetBrains%2BMono;" parent="1" vertex="1">
          <mxGeometry x="280" y="370" width="120" height="60" as="geometry" />
        </mxCell>
        <mxCell id="5DF6abSAtcW0_sRubqsM-14" value="Electronic Comp" style="rounded=0;whiteSpace=wrap;html=1;fontSize=12;fontFamily=JetBrains Mono;fontSource=https%3A%2F%2Ffonts.googleapis.com%2Fcss%3Ffamily%3DJetBrains%2BMono;" parent="1" vertex="1">
          <mxGeometry x="10" y="10" width="120" height="30" as="geometry" />
        </mxCell>
        <mxCell id="SegdhEvFkx0hU1wHnUH6-3" value="Dev" style="rounded=0;whiteSpace=wrap;html=1;fontSize=12;fontFamily=JetBrains Mono;fontSource=https%3A%2F%2Ffonts.googleapis.com%2Fcss%3Ffamily%3DJetBrains%2BMono;fillColor=#cdeb8b;strokeColor=#36393d;" parent="1" vertex="1">
          <mxGeometry x="10" y="90" width="120" height="30" as="geometry" />
        </mxCell>
        <mxCell id="JKJvemzIVtSR8P2CJAXn-1" value="STM32L432KC&lt;br style=&quot;font-size: 12px;&quot;&gt;MCU" style="rounded=0;whiteSpace=wrap;html=1;fontFamily=JetBrains Mono;fillColor=#cce5ff;strokeColor=#36393d;fontSize=12;fontSource=https%3A%2F%2Ffonts.googleapis.com%2Fcss%3Ffamily%3DJetBrains%2BMono;" parent="1" vertex="1">
          <mxGeometry x="520" y="360" width="160" height="160" as="geometry" />
        </mxCell>
        <mxCell id="SegdhEvFkx0hU1wHnUH6-8" value="Non-volatile" style="rounded=0;whiteSpace=wrap;html=1;fontSize=12;fontFamily=JetBrains Mono;fontSource=https%3A%2F%2Ffonts.googleapis.com%2Fcss%3Ffamily%3DJetBrains%2BMono;fillColor=#f9f7ed;strokeColor=#36393d;" parent="1" vertex="1">
          <mxGeometry x="150" y="130" width="120" height="30" as="geometry" />
        </mxCell>
        <mxCell id="R2pBz6GHN8-dwI80pUlq-4" style="edgeStyle=orthogonalEdgeStyle;rounded=1;orthogonalLoop=1;jettySize=auto;html=1;entryX=0;entryY=0.5;entryDx=0;entryDy=0;startArrow=classic;startFill=1;strokeWidth=2;fontSize=12;fontFamily=JetBrains Mono;fontSource=https%3A%2F%2Ffonts.googleapis.com%2Fcss%3Ffamily%3DJetBrains%2BMono;strokeColor=#FFAB2E;fillColor=#ffcc99;curved=0;exitX=1;exitY=0.75;exitDx=0;exitDy=0;" parent="1" source="JKJvemzIVtSR8P2CJAXn-1" target="R2pBz6GHN8-dwI80pUlq-6" edge="1">
          <mxGeometry relative="1" as="geometry">
            <mxPoint x="600" y="550" as="sourcePoint" />
          </mxGeometry>
        </mxCell>
        <mxCell id="R2pBz6GHN8-dwI80pUlq-5" value="&lt;div&gt;I2C1&lt;/div&gt;" style="edgeLabel;html=1;align=center;verticalAlign=middle;resizable=0;points=[];fontSize=12;fontFamily=JetBrains Mono;fontSource=https%3A%2F%2Ffonts.googleapis.com%2Fcss%3Ffamily%3DJetBrains%2BMono;labelBackgroundColor=#FFAB2E;labelBorderColor=#FFAB2E;" parent="R2pBz6GHN8-dwI80pUlq-4" vertex="1" connectable="0">
          <mxGeometry x="0.025" y="-3" relative="1" as="geometry">
            <mxPoint x="3" y="-7" as="offset" />
          </mxGeometry>
        </mxCell>
        <mxCell id="R2pBz6GHN8-dwI80pUlq-6" value="I2C Breakout" style="rounded=0;whiteSpace=wrap;html=1;fontSize=12;fontFamily=JetBrains Mono;fontSource=https%3A%2F%2Ffonts.googleapis.com%2Fcss%3Ffamily%3DJetBrains%2BMono;fillColor=#ffff88;strokeColor=#36393d;" parent="1" vertex="1">
          <mxGeometry x="800" y="520" width="120" height="60" as="geometry" />
        </mxCell>
      </root>
    </mxGraphModel>
  </diagram>
</mxfile>
